<?xml version="1.0" encoding="utf-8"?>
<!-- Generator: Adobe Illustrator 25.2.1, SVG Export Plug-In . SVG Version: 6.00 Build 0)  -->
<svg version="1.1" id="Layer_1" xmlns="http://www.w3.org/2000/svg" xmlns:xlink="http://www.w3.org/1999/xlink" x="0px" y="0px"
	 viewBox="0 0 200 200" style="enable-background:new 0 0 200 200;" xml:space="preserve">
<style type="text/css">
	.st0{fill:#00A0E3;}
	.st1{fill:#8BC53F;}
	.st2{fill:#EB008B;}
</style>
<g>
	<path class="st0" d="M101.52,97.03c2.03,0,3.64,0.32,4.88,0.8h0.02c0.49-16.43,6.53-31.93,25.87-31.93
		c14.38,0,19.5,7.83,21.5,14.38H175c-2.28-16.66-17.23-30.89-42.42-30.89c-30.89,0-48.12,22.21-48.12,51.68c0,0.01,0,0.01,0,0.02
		l0.01-0.02C90.89,99.41,98.38,97.03,101.52,97.03"/>
	<path class="st0" d="M142.9,97.84c-0.1,2.33-0.66,4.91-1.71,7.74c-0.69,1.87-1.51,3.78-2.47,5.74h15.21v1
		c0,8.68-3.42,21.35-21.5,21.35c-2.3,0-4.41-0.24-6.37-0.67c-4.12,6.39-8.61,12.65-11.94,15.41c4.45,1.43,9.38,2.2,14.74,2.2
		c13.67,0,23.2-3.99,28.61-11.39c0.29,3.28,0.86,6.69,1.71,9.68h15.52l-0.5-51.07L142.9,97.84z"/>
	<path class="st0" d="M106.42,97.84C106.42,97.84,106.42,97.83,106.42,97.84l-0.02-0.01C106.4,97.83,106.41,97.84,106.42,97.84"/>
	<path class="st1" d="M45.79,92.16h17.8c11.53,0,16.09-4.41,16.09-12.53c0-7.97-5.27-12.53-15.66-12.53H45.79V92.16z M45.79,109.1
		v39.29H25V50.31h43.14c21.35,0,32.89,11.67,32.89,26.91c0,13.1-7.12,20.22-14.24,23.2c3,1.54,9.59,5.65,14.16,23.11
		c0,0,6.27,17.8,13.23,24.87H92.44c-4.37-3.52-10.81-23.85-10.81-23.85c-2.88-10.51-6.09-15.44-21.89-15.44H45.79z"/>
	<path class="st2" d="M118.73,129.96c0,0-7.66-4.11-10.65-16.06c-2.27-9.01-1.69-16.06-1.69-16.06h21.46
		C127.85,97.84,130.68,111.53,118.73,129.96"/>
</g>
</svg>
